<svg height="297" width="297" viewBox="0 0 297 297" xmlns="http://www.w3.org/2000/svg" version="1.2">
	<title>sgaria-logo-icon-blue</title>
	<style>
		.s0 { fill: #0195db } 
		.s1 { fill: #ffffff } 
	</style>
	<path d="m502.6 89.2l0.5 0.7c0.5 0.5 0.5 0.9 0.4 2.6-0.1 1.1-0.5 3.1-0.8 4.5-0.3 1.4-1.2 3.7-2 5.3-0.8 1.6-2.2 3.9-3.2 5.2-1 1.3-2.8 3.1-3.9 4-1.1 1-3.1 2.4-4.5 3.2-1.3 0.8-3.5 1.8-4.8 2.3-1.4 0.5-3.4 1.2-4.6 1.5-2 0.4-4.8 0.5-31 0.6-28.5 0.2-28.8 0.2-29.9 0.8-0.6 0.3-1.6 1.1-2.1 1.7-0.5 0.6-1.2 1.9-1.4 2.7-0.3 1-0.4 2.1-0.3 2.8 0.1 0.7 0.4 1.7 0.7 2.3 0.3 0.6 1 1.5 1.5 2 0.6 0.5 1.5 1.2 2.2 1.5 1 0.5 2.6 0.5 24.1 0.5 15.5 0 24.2 0.2 26.4 0.4 1.8 0.2 4.3 0.6 5.6 0.9 1.3 0.3 3.2 0.8 4.2 1.2 1 0.4 2.9 1.2 4.2 1.9 1.2 0.6 3.2 1.8 4.4 2.7 1.2 0.8 3.1 2.4 4.2 3.5 1.1 1.1 2.9 3.2 3.9 4.5 1 1.3 2.5 3.9 3.3 5.6 0.9 1.8 1.9 4.3 2.3 5.8 0.4 1.4 0.9 3.8 1.2 5.3 0.2 1.5 0.4 4 0.4 5.5 0 1.5-0.2 3.9-0.4 5.4-0.3 1.5-0.8 3.9-1.2 5.4-0.4 1.4-1.3 3.6-1.9 5-0.6 1.3-2 3.7-3 5.2-1 1.5-2.8 3.7-4.1 5-1.2 1.2-3.1 2.9-4.1 3.6-1 0.8-2.8 1.9-3.9 2.6-1.1 0.6-3.1 1.6-4.5 2.1-1.3 0.6-3.8 1.4-8.7 2.6l-100.1 0.2-0.7-0.7c-0.4-0.4-0.7-1.1-0.7-1.5 0-0.4 0.2-1.6 0.4-2.8 0.2-1.1 0.7-3.1 1.1-4.3 0.4-1.2 1.2-3.2 1.8-4.3 0.6-1.2 1.6-2.9 2.2-3.8 0.7-1 2.3-2.9 3.7-4.2 1.5-1.5 3.4-3 4.9-3.9 1.3-0.8 3.5-1.8 4.9-2.4 1.4-0.5 3.4-1.1 4.5-1.4 1.8-0.4 5.6-0.5 38.1-0.6 30.5-0.2 36.3-0.3 37.3-0.6 0.6-0.3 1.7-1 2.4-1.7 1-1 1.4-1.7 1.7-2.7 0.2-0.8 0.3-1.8 0.3-2.2 0-0.5-0.1-1.5-0.3-2.3-0.3-0.9-0.7-1.7-1.7-2.7-0.9-1-1.7-1.4-2.9-1.8-1.4-0.4-4.2-0.4-23.3-0.4-11.9 0-23.4-0.2-25.5-0.3-2-0.2-4.7-0.5-6-0.8-1.3-0.2-3.2-0.8-4.3-1.2-1.1-0.4-3.1-1.2-4.5-1.9-1.3-0.7-3.4-1.9-4.6-2.8-1.2-0.8-3.3-2.6-4.6-3.9-1.4-1.4-3.2-3.7-4.2-5.1-1-1.4-2.2-3.6-2.8-4.8-0.5-1.1-1.3-3.1-1.8-4.3-0.4-1.2-1-3.4-1.3-5-0.5-2.2-0.6-3.9-0.6-7.3 0-3.6 0.1-5.1 0.6-7.5 0.3-1.7 1.1-4.3 1.8-5.9 0.6-1.6 1.7-4 2.5-5.4 0.9-1.3 2.1-3.1 2.7-4 0.7-0.8 2.2-2.5 3.4-3.7 1.2-1.2 3.4-3 4.9-4 1.5-1 3.4-2.2 4.3-2.6 0.9-0.5 2.7-1.2 4-1.7 1.4-0.5 3.5-1.1 4.8-1.4 1.9-0.4 4.3-0.5 13.8-0.7 6.3-0.1 25.7-0.2 74.6 0zm133 0l0.5 0.7c0.5 0.5 0.5 0.9 0.4 2.8-0.2 1.2-0.5 3.1-0.8 4.3-0.3 1.2-1 3.1-1.5 4.2-0.4 1.1-1.5 3-2.3 4.3-0.9 1.2-2.2 3-3 3.9-0.8 0.8-2.4 2.3-3.6 3.2-1.1 0.9-2.9 2.1-4 2.6-1 0.6-2.9 1.4-4.1 1.9-1.3 0.5-3.3 1.1-4.5 1.3-1.9 0.5-4.5 0.6-40.2 0.9l-2.7 0.8c-1.5 0.4-3.6 1.1-4.6 1.5-1 0.5-2.8 1.5-4 2.3-1.2 0.7-3.2 2.4-4.4 3.6-1.2 1.2-2.9 3.3-3.8 4.6-0.9 1.3-2 3.4-2.5 4.6-0.5 1.2-1.3 3.4-1.7 4.9-0.6 2.4-0.7 3.3-0.7 7.3 0 4.2 0.1 4.9 0.8 7.2 0.4 1.3 1.1 3.3 1.6 4.4 0.5 1.1 1.5 2.9 2.3 4 0.7 1.1 2.2 2.9 3.3 4.1 1.1 1.2 2.9 2.7 3.9 3.5 1 0.7 2.6 1.8 3.5 2.3 0.8 0.4 2.7 1.2 4 1.7 1.3 0.5 3.7 1.1 5.2 1.3 2.1 0.4 6.2 0.5 17.7 0.5 12.9 0 15-0.1 15.6-0.5 0.7-0.4 0.7-0.5 0.8-9.3 0.1-6.9 0.2-9.3 0.6-11 0.2-1.2 0.8-3.2 1.3-4.4 0.4-1.3 1.5-3.5 2.4-4.9 0.9-1.4 2.3-3.3 3-4.2 0.8-0.9 2.3-2.3 3.4-3.2 1.1-0.9 3-2.2 4.3-3 1.2-0.7 3.1-1.6 4.1-2 1.1-0.4 2.7-0.9 3.6-1.1 1-0.3 2.6-0.5 3.6-0.7 1.8-0.2 2-0.1 3.5 1.4l-0.1 77.2-0.8 2.8c-0.4 1.5-1.3 3.9-2 5.3-0.6 1.4-1.7 3.4-2.4 4.5-0.7 1-2.3 2.9-3.7 4.1-1.3 1.3-3.1 2.8-4 3.4-0.8 0.6-2.4 1.4-3.3 1.9-1 0.5-3 1.3-4.4 1.8-1.3 0.4-3.6 1-5.1 1.1-1.4 0.2-2.8 0.3-3.1 0.2-0.2-0.1-0.6-0.5-0.8-0.9-0.1-0.4-0.2-5.8-0.2-14.1 0-13-0.1-13.4-0.6-13.9-0.6-0.6-1-0.6-15.9-0.6-8.7 0-16.7-0.1-18.4-0.3-1.6-0.2-4.6-0.6-6.5-1-2-0.4-5-1.2-6.7-1.8-1.7-0.5-4.7-1.8-6.7-2.7-1.9-1-4.5-2.3-5.7-3.1-1.2-0.7-3.1-2-4.3-2.8-1.1-0.9-3.2-2.6-4.6-3.8-1.3-1.2-3.6-3.5-4.9-5.1-1.3-1.6-3.3-4.2-4.4-5.9-1.1-1.7-2.7-4.4-3.5-6-0.9-1.7-2-4.4-2.6-5.9-0.6-1.6-1.5-4.3-1.9-6.1-0.5-1.7-1.1-4.6-1.4-6.3-0.3-2.1-0.5-5-0.5-8.5 0-3 0.2-6.5 0.4-8.1 0.2-1.5 0.8-4.2 1.2-6 0.5-1.8 1.2-4.5 1.7-5.9 0.5-1.4 1.7-4.1 2.6-6 0.9-1.9 2.6-4.9 3.7-6.5 1.1-1.7 2.8-4 3.7-5.2 1-1.2 3.1-3.5 4.8-5.1 1.6-1.5 3.9-3.6 5.1-4.5 1.2-0.9 3.3-2.3 4.7-3.2 1.5-0.9 3.9-2.3 5.5-3 1.6-0.8 4.3-1.9 5.9-2.5 1.7-0.5 4-1.3 5.2-1.6 1.2-0.3 3.5-0.7 5-1 1.9-0.3 5.7-0.6 10.8-0.7 4.4-0.1 19-0.2 57.2 0zm62.5-0.1c19.3 0.1 30.6 0.2 32.4 0.4 1.5 0.2 4.2 0.7 6 1.2 1.8 0.5 4.7 1.4 6.3 2.1 1.7 0.7 4.2 2 5.5 2.8 1.4 0.8 3.2 2.1 4.2 2.8 0.9 0.7 2.7 2.2 3.8 3.3 1.2 1.1 3 3.2 4.1 4.6 1.1 1.5 2.6 3.8 3.4 5.2 0.8 1.4 2 3.9 2.6 5.5 0.7 1.6 1.5 4.2 1.9 5.9 0.4 1.6 0.9 4.2 1.1 5.7 0.2 2.1 0.3 12 0.4 78.1l-0.8 0.6c-0.7 0.5-1.2 0.5-43.3 0.4-39.8-0.1-42.7-0.1-44.8-0.6-1.1-0.3-3.2-0.8-4.4-1.2-1.3-0.4-3.4-1.3-4.6-1.9-1.3-0.6-3.4-1.8-4.6-2.6-1.3-0.8-3.6-2.7-5.1-4.2-1.5-1.6-3.5-3.8-4.3-5.1-0.9-1.3-2.1-3.4-2.8-4.7-0.6-1.4-1.6-3.7-2.1-5.2-0.5-1.5-1.1-4.2-1.4-6-0.4-1.8-0.6-4.6-0.6-6.2 0-1.6 0.2-4.1 0.4-5.5 0.3-1.3 0.8-3.7 1.3-5.1 0.5-1.5 1.5-3.9 2.2-5.3 0.7-1.4 2.1-3.6 3-4.8 0.9-1.3 2.5-3.3 3.7-4.4 1.1-1.2 3-2.9 4.2-3.7 1.1-0.9 3.1-2.1 4.3-2.9 1.3-0.7 3.5-1.7 5-2.3 1.5-0.6 3.7-1.3 5-1.7 2.4-0.6 2.7-0.6 30.6-0.8 27.7-0.1 28.2-0.1 28.6-0.7 0.2-0.3 0.4-0.7 0.4-0.8 0-0.2-0.2-1.1-0.5-2.1-0.2-0.9-0.8-2.4-1.3-3.4-0.5-0.9-1.7-2.4-2.7-3.3-0.9-0.9-2.4-2-3.2-2.4-0.9-0.4-2.3-1-3.2-1.2-1.4-0.4-4.3-0.5-17.6-0.5-9.5 0-17-0.1-18.5-0.3-1.3-0.1-3.4-0.5-4.7-0.8-1.3-0.4-3.7-1.3-5.5-2.2-1.7-0.8-4-2.1-5-2.9-1-0.8-2.7-2.3-3.7-3.4-1-1.1-2.5-3-3.3-4.3-0.7-1.3-1.8-3.3-2.3-4.5-0.5-1.2-1.2-3.4-1.6-4.9-0.3-1.5-0.6-3.3-0.6-4.1-0.1-1.1 0.1-1.6 0.5-2 0.2-0.2 0.8-0.5 1.2-0.5 0.4-0.1 14.1-0.1 30.4-0.1zm-14.1 75.8c-0.6 0.4-1.5 1.3-1.9 2-0.5 0.7-1 1.9-1.1 2.6-0.1 0.7 0 1.8 0.1 2.5 0.1 0.6 0.5 1.6 0.8 2.3 0.4 0.6 1.2 1.5 1.8 1.9 0.6 0.4 1.9 1 2.9 1.2 1.4 0.4 5.8 0.4 26.9 0.5 19.9 0 25.3-0.1 25.7-0.4 0.5-0.3 0.5-0.9 0.5-6.7 0-6.3 0-6.3-0.6-6.8-0.7-0.5-2.1-0.6-26.1-0.5-18.4 0-25.6 0.1-26.6 0.3-0.7 0.2-1.8 0.7-2.4 1.1zm259.7-75.9c0.4 0 1.3 0 1.8 0.2 0.5 0.2 1 0.6 1.2 0.9 0.2 0.4 0.3 20.4 0.3 58.3 0 57 0 57.8-0.6 58.5-0.5 0.7-0.7 0.7-2.8 0.7-1.2 0-3.3-0.3-4.5-0.7-1.3-0.3-3.6-1.2-5.2-2-1.6-0.7-3.7-2-4.8-2.8-1-0.8-2.7-2.3-3.7-3.4-1-1.1-2.4-2.8-3-3.7-0.6-1-1.7-2.9-2.4-4.3-0.6-1.5-1.5-3.7-1.8-4.9-0.3-1.3-0.7-3.5-0.9-4.9-0.1-1.5-0.3-20.7-0.3-46.5 0-41.8 0-43.9 1-45.2l12.4-0.1c6.8 0 12.8-0.1 13.3-0.1zm58.8 0.1c13.3 0.1 27.5 0.2 31.6 0.2 6.3 0.1 7.9 0.2 10.3 0.8 1.6 0.3 4.1 1 5.5 1.5 1.4 0.4 3.8 1.4 5.2 2.1 1.4 0.7 3.6 1.9 4.9 2.7 1.3 0.8 3.4 2.4 4.7 3.6 1.4 1.1 3.3 3 4.3 4.2 1 1.2 2.5 3 3.2 4.2 0.8 1.1 1.8 2.8 2.4 3.8 0.5 1.1 1.5 3.1 2 4.5 0.6 1.4 1.4 3.8 1.8 5.3 0.4 1.5 0.9 4.2 1.2 6 0.3 2.7 0.4 9.1 0.4 78.3l-1.4 1.5h-41.1c-36 0-41.5-0.1-44.2-0.5-1.6-0.2-4.1-0.7-5.4-1.1-1.4-0.4-4-1.5-5.9-2.4-1.9-1-4.6-2.6-5.9-3.6-1.4-1-3.4-2.9-4.6-4.1-1.2-1.3-2.8-3.3-3.7-4.6-0.8-1.2-2-3.4-2.6-4.7-0.7-1.4-1.5-3.5-1.9-4.8-0.5-1.2-1.1-3.7-1.4-5.5-0.3-1.8-0.5-4.6-0.5-6.2 0-1.6 0.2-4.2 0.4-5.7 0.3-1.5 0.8-3.8 1.3-5.2 0.4-1.3 1.3-3.4 1.8-4.6 0.6-1.2 1.6-3 2.3-4 0.6-1 2-2.9 3.1-4.1 1-1.3 2.8-3.1 4-4.1 1.2-1 3.2-2.4 4.4-3.2 1.1-0.7 3.1-1.8 4.4-2.4 1.3-0.6 3.2-1.4 4.2-1.7 1-0.3 2.8-0.8 3.9-1.1 1.6-0.3 4.8-0.5 16.1-0.7 7.8-0.1 19.9-0.1 27.1 0 7.1 0 13.4 0 14-0.1 0.7-0.1 1.2-0.4 1.4-0.7q0.3-0.6 0-2.1c-0.2-0.8-0.7-2.4-1.2-3.4-0.5-1.1-1.6-2.6-2.5-3.6-0.9-0.9-2.2-2-3-2.4-0.7-0.4-1.9-1-2.7-1.3-1.4-0.6-2.3-0.6-19.7-0.8-15.9-0.1-18.6-0.2-20.5-0.7-1.1-0.2-2.9-0.7-3.8-1-1-0.3-2.8-1.1-4.1-1.8-1.2-0.6-3.1-1.7-4.1-2.5-1.1-0.8-2.7-2.2-3.7-3.2-0.9-1-2.3-2.7-3-3.7-0.7-1-1.7-2.9-2.3-4.2-0.6-1.2-1.4-3.4-1.8-4.9-0.5-1.4-0.9-3.5-1-4.7-0.1-1.9 0-2.2 0.4-2.7 0.3-0.2 0.8-0.5 1.1-0.5 0.3-0.1 11.4-0.1 24.6-0.1zm-8.5 76c-0.6 0.5-1.4 1.5-1.8 2.3-0.6 1-0.7 1.8-0.7 3.3 0 1.4 0.1 2.2 0.7 3.3 0.4 0.8 1.2 1.8 1.9 2.3 0.6 0.5 1.8 1 2.6 1.2 1.1 0.3 8.5 0.4 27.1 0.4 20.5 0 25.6-0.1 25.9-0.4 0.2-0.3 0.3-2.3 0.4-6.8 0-6.1 0-6.5-0.5-6.9-0.4-0.3-5.9-0.3-26.2-0.3-18.7 0-26 0.1-26.9 0.3-0.8 0.2-1.9 0.8-2.5 1.3zm130.1 12.8c1 0 2.6 0.2 3.6 0.4 0.9 0.2 2.4 0.8 3.3 1.2 0.9 0.5 2.4 1.6 3.6 2.8 1.2 1.2 2.3 2.7 2.8 3.6 0.4 0.9 1 2.3 1.2 3.2 0.2 0.8 0.4 2.6 0.4 3.9 0 1.2-0.2 3-0.4 3.8-0.3 0.9-0.9 2.4-1.4 3.4-0.5 0.9-1.6 2.4-2.5 3.3-0.9 0.9-2.3 2-3.4 2.5-1.1 0.5-2.7 1.1-3.6 1.3-1 0.3-2.6 0.5-3.5 0.5-1 0-2.5-0.2-3.5-0.5-0.9-0.2-2.5-0.8-3.5-1.3-1.1-0.5-2.6-1.7-3.5-2.5-1.1-1.1-2-2.4-2.8-4.1-0.9-1.7-1.3-3-1.5-4.5q-0.3-2.1 0-4c0.1-1 0.5-2.5 0.8-3.3 0.4-0.9 1-2.2 1.6-3 0.5-0.7 1.6-2 2.5-2.8 0.9-0.8 2.3-1.8 3.1-2.3 0.9-0.4 2.3-0.9 3.2-1.2 0.9-0.2 2.4-0.4 3.5-0.4zm-284.8-88.7c24.3 0 29.7 0.1 31.8 0.4 1.4 0.3 3.8 0.8 5.2 1.2 1.4 0.4 3.8 1.3 5.3 2 1.5 0.8 3.9 2.1 5.2 3 1.3 0.9 3.6 2.8 5.1 4.2 1.4 1.4 3.3 3.7 4.2 5 0.9 1.4 2.1 3.6 2.8 4.9 0.6 1.4 1.4 3.5 1.8 4.6 0.4 1.2 1 3.3 1.3 4.6 0.4 1.9 0.5 3.8 0.5 7.8 0 4.7-0.1 5.6-0.7 7.9-0.4 1.5-1.2 3.8-1.7 5.2-0.6 1.4-1.8 3.7-2.6 5-0.8 1.4-2.3 3.6-3.4 4.9-1.1 1.4-3.2 3.5-4.8 4.8-1.5 1.3-3.7 2.9-5 3.6-1.2 0.8-3.3 1.8-4.7 2.4-1.3 0.5-3.5 1.3-4.9 1.6-1.3 0.3-3.7 0.7-5.2 0.9-1.5 0.1-2.9 0.4-3 0.6-0.3 0.3 6.2 6.9 29 29.3 19.7 19.5 29.2 29 29 29.2-0.2 0.2-3.8 0.3-9.3 0.4-7.1 0.1-9.8 0-13.1-0.4-2.3-0.2-5.6-0.7-7.4-1.1-1.7-0.4-4.8-1.2-6.7-1.9-2-0.6-5.2-1.9-7.2-2.9-1.9-0.9-4.8-2.6-6.3-3.6-1.5-1.1-3.5-2.4-4.3-3.1-0.7-0.6-10.2-10-21.1-20.7-13.4-13.4-19.8-20-20.2-20.8-0.5-1-0.5-2-0.5-10.9 0-7.6 0.1-10.3 0.4-11.8 0.2-1.1 0.8-2.8 1.3-3.8 0.5-1 1.5-2.6 2.4-3.4 0.8-0.9 2.1-2 2.8-2.5 0.7-0.4 2.1-1.1 3.1-1.4 1.8-0.7 2.3-0.7 15.1-0.9 11.5-0.1 13.5-0.2 14.5-0.6 0.7-0.3 1.7-0.8 2.2-1.2 0.5-0.4 1.3-1.3 1.7-2.1 0.6-1.1 0.8-1.8 0.8-3.1 0-1.2-0.2-2.2-0.7-3.2-0.3-0.8-1.2-1.9-1.8-2.4-0.6-0.6-1.7-1.2-2.3-1.4-0.8-0.3-7.3-0.3-27.2-0.3-20.5-0.1-26.1 0-26.4 0.3-0.3 0.3-0.3 7.2-0.3 30.3 0 24.6-0.1 30.4-0.5 32.7-0.2 1.5-0.7 3.6-1 4.7-0.3 1.1-1.2 3.1-1.9 4.5-0.6 1.3-1.8 3.2-2.5 4.1-0.7 1-1.9 2.5-2.8 3.3-0.9 0.9-2.3 2.2-3.3 2.9-0.9 0.7-2.8 1.8-4.2 2.5-1.3 0.6-3.5 1.5-4.9 2-1.3 0.4-3.4 0.9-4.6 1.1-1.2 0.2-2.4 0.3-2.8 0.2-0.4-0.1-0.9-0.5-1.1-0.9-0.3-0.5-0.4-10.4-0.4-45 0-38.3 0.1-44.7 0.5-47.2 0.2-1.6 0.8-4 1.3-5.4 0.4-1.4 1.2-3.3 1.6-4.2 0.5-0.9 1.5-2.5 2.3-3.7 0.8-1.1 2.3-2.8 3.3-3.8 1-1 2.8-2.5 4.1-3.4 1.3-0.8 3.2-1.9 4.2-2.3 1-0.5 2.8-1.2 3.9-1.5 1.1-0.3 2.6-0.7 3.4-0.9 0.9-0.1 13.9-0.2 30.7-0.3z" class="s0" fill-rule="evenodd" id="typo"></path>
	<g id="s">
		<path d="m229.5 173h37.1v40.5h-37.1z" class="s1" id="Camada 1"></path>
		<path d="m66.5 85.8h159.8v127.2h-159.8z" class="s1" id="Forma 1"></path>
		<path d="m32.5 175.3h38v33.9h-38z" class="s1" id="Forma 2"></path>
		<path d="m222.3 79.1h33.1v44.1h-33.1z" class="s1" id="Forma 3"></path>
	</g>
	<path d="m151.9 0.2c4.3 0 9.6 0.3 11.9 0.5 2.3 0.3 6.2 0.8 8.7 1.2 2.4 0.4 7.1 1.4 10.3 2.2 3.3 0.8 9 2.4 12.7 3.7 3.7 1.2 8.6 2.9 10.9 3.9 2.3 0.9 6 2.4 8.2 3.5 2.3 1 5.8 2.7 7.8 3.9 2.1 1.1 4.8 2.6 6.1 3.4 1.2 0.8 3.3 2.2 4.6 3 1.2 0.9 3.5 2.6 5 3.8 1.5 1.2 3.9 3.3 5.3 4.7 1.4 1.3 3.5 3.6 4.7 5 1.2 1.4 3 3.8 3.9 5.2 1 1.4 2.4 4 3.2 5.7 0.9 1.8 2 4.4 2.4 5.9 0.5 1.5 1.1 3.9 1.4 5.4 0.4 2 0.6 3.9 0.6 8.3-0.1 4.8-0.2 6.3-0.7 9.1-0.4 1.8-1.2 4.9-3.1 10.5h7.9c7.3 0 8.2 0.1 10.5 0.6 1.5 0.4 3.7 1.2 4.9 1.8 1.3 0.7 3.1 1.8 4 2.5 1 0.8 2.4 2.2 3.1 3.3 0.8 1 2 3 2.7 4.4 0.7 1.5 1.7 3.8 2.2 5.2 0.5 1.4 1.3 4.1 1.7 5.9 0.5 1.8 1.1 4.6 1.4 6.1 0.3 1.5 0.9 4.4 1.2 6.6 0.3 2.1 0.8 6.1 1.1 8.9 0.3 3.4 0.4 7.7 0.4 13.1 0 4.4-0.1 9.7-0.3 11.6-0.2 2-0.7 5.9-1.1 8.7-0.4 2.8-1.1 7-1.6 9.3-0.4 2.4-1.3 6.4-2 9-0.6 2.5-1.9 6.6-2.7 9.2-0.8 2.5-2.3 6.6-3.3 9-1 2.5-2.9 6.7-4.2 9.4-1.3 2.7-3.3 6.6-4.6 8.8-1.2 2.1-3.6 6-5.4 8.7-1.8 2.7-4.5 6.5-5.9 8.4-1.5 1.9-3.8 4.7-5.2 6.3-1.3 1.6-4.8 5.3-7.8 8.2-2.9 3-6.8 6.6-8.6 8.2-1.9 1.6-5.1 4.1-7.2 5.8-2.2 1.6-5.5 3.9-7.4 5.2-1.9 1.3-5 3.3-6.9 4.4-1.9 1.1-5.6 3.2-8.3 4.5-2.7 1.3-6.6 3-8.5 3.8-2 0.8-4.9 1.9-6.5 2.5-1.6 0.6-5 1.7-7.6 2.4-2.7 0.8-6.5 1.8-8.7 2.3-2.1 0.5-5.4 1.2-7.3 1.5-1.9 0.3-5.5 0.8-7.9 1.1-2.5 0.3-7 0.7-10.1 0.9-3.4 0.2-8.3 0.3-12.3 0.2-3.6-0.1-8.7-0.4-11.2-0.6-2.5-0.3-6.7-0.8-9.3-1.2-2.7-0.4-6.8-1.2-9.3-1.7-2.4-0.5-6.2-1.5-8.4-2.2-2.3-0.6-5.2-1.5-6.7-2-1.4-0.5-4.4-1.6-6.6-2.5-2.2-0.8-6.4-2.7-9.4-4.1-2.9-1.5-7-3.6-9-4.7-2.1-1.2-6-3.6-8.7-5.4-2.7-1.8-6.8-4.7-9.2-6.4-2.3-1.8-5.5-4.3-7-5.5-1.5-1.3-3.8-3.3-5.2-4.6-1.3-1.3-3.4-3.5-4.6-4.9-1.2-1.4-2.9-3.7-3.7-5-0.9-1.4-2.1-3.5-2.7-4.8-0.6-1.3-1.5-3.5-1.9-4.9-0.5-1.4-1.1-3.7-1.3-5-0.3-1.4-0.6-4-0.8-5.8-0.1-2.1-0.1-4.6 0-7 0.2-2.1 0.6-5 0.9-6.5 0.3-1.5 0.6-3 0.8-4h-6.8c-5 0-7.3-0.1-8.6-0.5-0.9-0.2-2.2-0.7-2.8-1.1-0.6-0.4-1.6-1.4-2.2-2.2-0.7-0.9-1.9-3-2.8-4.7-0.8-1.8-1.9-4.5-2.5-6.2-0.5-1.7-1.5-4.8-2-7.1-0.6-2.2-1.4-5.8-1.8-8-0.4-2.2-1-6.5-1.4-9.5-0.4-3-0.8-7.5-1-9.9-0.2-2.9-0.3-7.5-0.2-12.8 0.1-4.6 0.3-9.7 0.5-11.3 0.1-1.6 0.5-4.7 0.9-7 0.3-2.3 0.9-6.1 1.4-8.5 0.5-2.4 1.4-6.3 2-8.8 0.6-2.4 2.1-7.1 3.1-10.3 1.1-3.3 2.8-7.7 3.7-9.8 0.9-2.2 2.7-6.1 4-8.7 1.4-2.7 3.3-6.3 4.4-8.1 1-1.8 2.9-4.8 4.2-6.7 1.3-1.9 3.3-4.7 4.4-6.3 1.2-1.6 3.4-4.3 4.8-6.1 1.5-1.7 4.3-4.9 6.3-7 2-2.2 5.3-5.5 7.5-7.4 2.1-1.9 4.8-4.4 6.1-5.4 1.3-1.1 4.1-3.3 6.3-5 2.3-1.7 5.8-4.2 7.8-5.5 2.1-1.4 5.3-3.4 7.1-4.5 1.8-1.1 5.2-2.9 7.5-4 2.3-1.2 6.3-3 8.9-4 2.6-1 6.7-2.5 9.1-3.3 2.3-0.8 6.2-2 8.4-2.6 2.3-0.6 6-1.5 8.3-2 2.2-0.5 5.9-1.2 8.2-1.6 2.3-0.4 5.9-0.9 8-1.2 2.2-0.2 5.5-0.6 7.5-0.7 2-0.1 7.1-0.2 11.4-0.1zm-53.4 90.7c-1.4 0.5-3.9 1.5-5.4 2.3-1.6 0.8-3.8 2.1-5 2.9-1.2 0.9-3.3 2.7-4.8 4.2-1.4 1.4-3.3 3.7-4.2 5-0.9 1.4-2 3.3-2.4 4.2-0.5 1-1.3 2.9-1.8 4.3-0.5 1.4-1.2 3.8-1.5 5.3-0.3 1.5-0.6 4-0.7 5.5-0.1 1.6-0.1 4 0.1 5.8 0.2 1.6 0.6 3.8 0.8 4.7 0.2 1 0.7 2.7 1.1 3.9 0.4 1.2 1.2 3.1 1.7 4.2 0.6 1.1 1.7 3 2.4 4.1 0.8 1.2 2.5 3.4 3.9 4.8 1.3 1.4 3.5 3.4 4.8 4.4 1.4 1 4.2 2.7 6.2 3.7 2.6 1.2 4.9 2.1 7.2 2.8l3.5 0.9h82c1.8 1.1 2.7 2 3.3 2.6 0.5 0.6 1.1 1.7 1.2 2.3 0.2 0.6 0.3 1.8 0.2 2.6-0.1 0.8-0.3 1.8-0.6 2.3-0.2 0.5-0.8 1.3-1.4 1.8-0.5 0.6-1.3 1.2-1.8 1.5-0.8 0.4-6.2 0.4-60.2 0.6-58.9 0.1-59.3 0.1-61.9 0.7-1.4 0.4-3.8 1-5.3 1.6-1.5 0.5-4 1.5-5.6 2.3-1.6 0.8-4.1 2.3-5.6 3.4-1.5 1-3.8 3-5.2 4.3-1.4 1.4-3.3 3.7-4.4 5.1-1.1 1.4-2.6 3.8-3.4 5.3-0.8 1.5-1.8 3.8-2.3 5-0.5 1.3-0.8 2.4-0.8 2.4 0 0 13 0.2 28.9 0.4 17.4 0.2 46.8 0.3 74.7 0.2 26.5-0.1 47.6-0.3 49.8-0.5 2.1-0.1 5.2-0.5 6.8-0.8 1.5-0.4 4-1 5.4-1.5 1.5-0.5 3.6-1.4 4.8-2.1 1.2-0.6 3-1.7 4-2.5 1-0.8 2.8-2.3 4-3.5 1.2-1.2 2.6-2.8 3.2-3.6 0.6-0.8 1.6-2.3 2.3-3.3 0.6-1 1.6-3 2.2-4.3 0.6-1.3 1.4-3.9 1.9-5.6 0.4-1.9 0.9-4.7 1.1-6.8 0.1-2.2 0.2-4.7 0-6.4-0.1-1.6-0.4-3.8-0.7-4.8-0.2-1-0.8-2.8-1.2-4-0.4-1.2-1.2-3.1-1.8-4.2-0.5-1.1-1.7-3.1-2.6-4.5-0.9-1.3-2.8-3.6-4.3-5.2-1.6-1.5-3.9-3.4-5.2-4.3-1.4-0.9-3.6-2.2-4.9-2.8-1.4-0.6-3.3-1.4-4.3-1.8-1.1-0.3-3.1-0.9-4.5-1.2-2.6-0.6-3.2-0.6-43.8-0.8l-41.1-0.1c-1.8-1.1-2.8-2-3.3-2.6-0.6-0.7-1.2-1.7-1.4-2.3-0.2-0.7-0.4-1.8-0.4-2.6 0-0.8 0.3-2 0.5-2.6 0.3-0.6 1.1-1.7 1.8-2.3 0.7-0.6 1.7-1.3 2.2-1.5 0.8-0.3 6.4-0.3 30.1-0.2 18.9 0.1 34 0.1 42.9-0.1 7.5-0.2 16.3-0.5 19.5-0.6 3.3-0.2 8.5-0.5 11.7-0.8 3.2-0.2 7.6-0.7 9.9-1 2.3-0.3 5.3-0.9 6.7-1.3 1.3-0.4 3.8-1.4 5.4-2.3 1.7-0.9 4.2-2.4 5.5-3.4 1.3-1 3.4-2.7 4.6-3.8 1.2-1.1 3.1-3.2 4.4-4.7 1.2-1.5 3.1-4 4.1-5.5 1-1.5 2.3-3.6 2.8-4.7 0.6-1 1.1-2 1-2 0-0.1-33.5-0.3-74.5-0.3-72-0.2-74.5-0.2-77 0.4-1.4 0.3-3.8 0.9-5.3 1.4zm141.9 88.5c-1.7 0.8-2.9 1.7-4 2.8-0.9 0.9-2 2.4-2.5 3.3-0.5 0.9-1.1 2.5-1.4 3.4-0.2 1-0.4 2.7-0.4 3.9 0 1.2 0.2 3 0.4 3.9 0.3 1 0.9 2.5 1.4 3.4 0.5 1 1.6 2.4 2.5 3.3 0.9 0.9 2.4 2.1 3.3 2.6 1 0.5 2.5 1.1 3.5 1.4 1 0.3 2.6 0.5 4 0.5 1.3 0 3-0.2 4-0.5 1-0.3 2.4-0.8 3.1-1.2 0.8-0.4 2.2-1.5 3.2-2.4 1.1-1.1 2.2-2.4 2.8-3.7 0.6-1.1 1.3-2.9 1.6-4 0.3-1.4 0.4-2.7 0.3-4.3-0.1-1.3-0.4-3-0.8-4-0.3-1-1-2.4-1.5-3.2-0.6-0.8-1.7-2.1-2.5-2.9-0.9-0.8-2.2-1.7-2.9-2.1-0.7-0.4-2-0.9-2.9-1.2-0.8-0.3-2.4-0.6-3.6-0.7-1.1 0-2.7 0-3.6 0.2-0.8 0.1-2.6 0.8-4 1.5z" class="s0" fill-rule="evenodd" id="icon"></path>
</svg>