<svg height="1032" width="3956" viewBox="0 0 3956 1032" xmlns="http://www.w3.org/2000/svg" version="1.2">
	<title>schemc-logo-rework</title>
	<style>
		.s0 { fill: #ffffff } 
	</style>
	<path d="m527.5 0.5c14.8 0.2 33.5 1.1 41.5 2 8 0.8 21.5 2.7 30 4 8.5 1.4 24.7 4.8 36 7.6 11.3 2.8 31.1 8.6 44 12.8 12.9 4.3 30 10.4 38 13.6 8 3.2 20.8 8.7 28.5 12.2 7.7 3.5 19.8 9.6 27 13.5 7.1 3.9 16.6 9.3 21 12.1 4.4 2.7 11.6 7.4 16 10.5 4.4 3 12.3 8.9 17.5 13.1 5.2 4.1 13.5 11.4 18.4 16.1 4.9 4.7 12.2 12.5 16.4 17.5 4.2 4.9 10.2 13 13.5 18 3.2 4.9 8.3 13.9 11.2 20 2.9 6 6.7 15.3 8.3 20.5 1.7 5.2 3.9 13.5 4.9 18.5 1.4 7 1.8 13.5 1.8 29-0.1 16.8-0.4 21.8-2.4 31.5-1.2 6.3-4.1 17.1-10.6 36.5h27.5c25.1 0.1 28.3 0.3 36.5 2.3 4.9 1.3 12.6 4 17 6.2 4.4 2.2 10.7 6.1 13.9 8.7 3.2 2.7 8.1 7.7 10.7 11.3 2.7 3.6 6.8 10.5 9.3 15.5 2.4 4.9 5.8 13 7.6 18 1.7 4.9 4.4 14.2 6 20.5 1.6 6.3 3.8 15.8 4.9 21 1.1 5.2 2.9 15.6 4 23 1.1 7.4 2.8 21.4 3.7 31 1.2 11.8 1.7 26.7 1.7 45.5 0 15.4-0.5 33.6-1.2 40.5-0.7 6.9-2.3 20.4-3.7 30-1.4 9.6-3.8 24.2-5.5 32.5-1.6 8.2-4.8 22.2-7.1 31-2.2 8.8-6.4 23.2-9.3 32-2.9 8.8-8.1 23-11.5 31.5-3.4 8.5-9.9 23.1-14.5 32.5-4.5 9.3-11.7 23.1-15.9 30.5-4.3 7.4-12.8 21.1-19.1 30.5-6.2 9.3-15.4 22.4-20.5 29-5.1 6.6-13.1 16.5-17.8 22-4.7 5.5-16.9 18.4-27.1 28.6-10.2 10.2-23.8 22.9-30.1 28.3-6.3 5.4-17.6 14.4-25 20-7.4 5.6-18.9 13.8-25.5 18.3-6.6 4.4-17.4 11.3-24 15.2-6.6 4-19.7 11-29 15.6-9.4 4.5-22.6 10.5-29.5 13.3-6.9 2.8-17 6.7-22.5 8.7-5.5 2-17.4 5.8-26.5 8.4-9.1 2.7-22.6 6.2-30 7.9-7.4 1.7-18.9 4-25.5 5.2-6.6 1.1-19 2.9-27.5 4-8.5 1-24.3 2.4-35 3.1-11.7 0.7-28.7 0.9-42.5 0.6-12.7-0.4-30.2-1.3-39-2.2-8.8-0.8-23.4-2.7-32.5-4.1-9.1-1.4-23.5-4.1-32-5.9-8.5-1.9-21.8-5.3-29.5-7.5-7.7-2.3-18.1-5.5-23-7.2-5-1.6-15.3-5.5-23-8.5-7.7-3-22.3-9.5-32.5-14.5-10.2-4.9-24.4-12.2-31.5-16.3-7.2-4-20.7-12.4-30-18.6-9.4-6.1-23.8-16.2-32-22.4-8.3-6.1-19.3-14.7-24.5-19-5.2-4.4-13.3-11.6-17.9-16-4.6-4.4-11.8-12.1-15.9-17-4.2-5-10.1-12.8-13.1-17.5-3-4.7-7.2-12.1-9.2-16.5-2.1-4.4-5.1-12.1-6.7-17-1.7-5-3.7-12.8-4.6-17.5-0.9-4.7-2.1-13.7-2.6-20-0.6-7.3-0.6-16.2 0.1-24.5 0.5-7.2 1.8-17.3 2.9-22.5 1.1-5.2 2.2-10.5 3-14h-23.8c-17.3 0-25.3-0.4-29.7-1.5-3.3-0.8-7.7-2.6-9.8-4-2-1.4-5.6-4.9-7.8-7.8-2.3-2.8-6.5-10.2-9.5-16.2-2.9-6.1-6.9-15.7-8.8-21.5-1.9-5.8-5.1-16.8-7-24.5-1.9-7.7-4.7-20.3-6.1-28-1.4-7.7-3.6-22.6-5-33-1.3-10.5-2.9-26-3.6-34.5-0.7-9.9-1-26-0.6-44.5 0.3-16 1.1-33.5 1.7-39 0.6-5.5 2-16.5 3.1-24.5 1.1-8 3.4-21.3 5-29.5 1.6-8.3 4.8-22 7-30.5 2.2-8.5 7.1-24.7 10.8-36 3.8-11.3 9.5-26.6 12.6-34 3.2-7.4 9.5-21 14.1-30.3 4.6-9.2 11.4-21.8 15.1-28 3.6-6.1 10.2-16.6 14.6-23.2 4.4-6.6 11.4-16.5 15.5-22 4.2-5.5 11.7-15 16.7-21 5-6.1 14.8-17.1 21.7-24.5 6.9-7.4 18.6-19 25.9-25.7 7.4-6.7 17-15.1 21.4-18.8 4.4-3.7 14.3-11.5 22-17.3 7.7-5.8 19.8-14.4 27-19.2 7.1-4.8 18.2-11.7 24.5-15.5 6.3-3.7 18-10.1 26-14.1 8-4 21.9-10.2 31-13.8 9.1-3.5 23.2-8.7 31.5-11.4 8.2-2.8 21.5-6.8 29.5-9 8-2.2 20.8-5.4 28.5-7.1 7.7-1.7 20.5-4.2 28.5-5.6 8-1.3 20.6-3.1 28-4 7.4-0.9 19.1-2 26-2.5 6.9-0.5 24.6-0.7 39.5-0.5zm-185.3 315.4c-5 1.7-13.6 5.3-19 8-5.3 2.7-13.1 7.3-17.2 10.2-4.1 2.9-11.6 9.3-16.5 14.3-5 5-11.6 12.9-14.7 17.6-3.1 4.7-6.9 11.2-8.6 14.5-1.6 3.3-4.4 10-6.1 15-1.8 4.9-4 13.3-5.1 18.5-1 5.2-2.2 13.8-2.5 19-0.4 5.5-0.2 14 0.5 20 0.6 5.8 1.8 13.2 2.5 16.5 0.8 3.3 2.6 9.4 4 13.5 1.4 4.1 4.1 10.6 6 14.5 1.9 3.8 5.6 10.4 8.3 14.5 2.7 4.1 8.7 11.5 13.3 16.4 4.6 4.9 12.2 11.8 16.9 15.3 4.7 3.5 14.3 9.3 21.5 12.9 8.8 4.3 16.9 7.5 25 9.7l12 3.2h285c6.1 3.9 9.4 6.8 11.2 9 1.9 2.2 3.9 5.8 4.5 8 0.5 2.2 0.8 6.2 0.5 9-0.2 2.7-1.1 6.3-1.9 8-0.9 1.6-3.1 4.5-4.9 6.4-1.9 1.8-4.8 4.1-6.4 5-2.7 1.5-21.7 1.6-209 2.1-204.7 0.6-206.1 0.6-215 2.7-5 1.1-13.3 3.5-18.5 5.3-5.2 1.7-14 5.4-19.5 8.1-5.5 2.8-14.2 8-19.4 11.7-5.2 3.7-13.3 10.5-18 15.2-4.7 4.7-11.6 12.6-15.3 17.5-3.7 5-9 13.3-11.7 18.5-2.7 5.2-6.3 13.1-8 17.5-1.8 4.4-3 8.1-2.9 8.2 0.2 0.1 45.3 0.7 100.3 1.4 60.6 0.7 162.8 0.9 259.5 0.6 91.9-0.3 165.2-1 173-1.6 7.4-0.5 18-1.9 23.5-3 5.5-1.1 14-3.4 19-5.1 4.9-1.8 12.4-5 16.5-7.1 4.1-2.2 10.4-6.2 14-8.8 3.6-2.7 9.8-8.2 13.8-12.2 4.1-4.1 9.1-9.7 11.2-12.4 2.1-2.8 5.6-7.9 7.8-11.5 2.1-3.6 5.6-10.3 7.6-15 2.1-4.7 5.1-13.5 6.6-19.5 1.7-6.5 3.3-16.1 3.9-23.5 0.6-7.7 0.7-16.3 0.1-22.5-0.5-5.5-1.5-12.9-2.4-16.5-0.8-3.6-2.7-9.9-4.2-14-1.4-4.1-4.2-10.7-6.1-14.5-1.9-3.9-6-10.8-9.1-15.5-3.1-4.7-9.9-12.8-15.2-18-5.2-5.3-13.3-12.1-18-15.2-4.7-3.1-12.3-7.5-17-9.7-4.7-2.1-11.4-4.9-15-6.1-3.6-1.2-10.6-3.1-15.5-4.3-8.9-2.1-11-2.1-152-2.7l-143-0.5c-6.1-3.9-9.5-6.8-11.4-9.1-2-2.2-4.2-5.8-4.8-8-0.7-2.1-1.3-6.2-1.3-8.9 0-2.8 0.9-6.8 1.9-9 1-2.2 3.8-5.8 6.2-7.9 2.4-2.2 5.9-4.6 7.6-5.3 2.7-1.1 22-1.2 104.5-0.7 65.7 0.4 118 0.2 148.8-0.5 26.1-0.6 56.7-1.6 68-2.1 11.3-0.6 29.5-1.7 40.5-2.6 11-0.8 26.5-2.4 34.5-3.5 8-1.2 18.3-3.2 23-4.6 4.7-1.3 13.2-4.9 19-7.9 5.8-3 14.3-8.3 19-11.8 4.7-3.5 11.8-9.5 15.9-13.2 4.1-3.8 11-11.2 15.3-16.4 4.4-5.2 10.8-13.8 14.2-19 3.5-5.2 7.9-12.5 9.9-16.3 2.1-3.7 3.6-6.9 3.4-7.2-0.1-0.3-116.5-0.8-258.7-1-250.2-0.5-258.8-0.4-267.5 1.4-5 1-13.2 3.3-18.3 5zm492.8 307.3c-5.9 2.9-10.2 5.9-14 9.8-3 3.1-6.9 8.3-8.7 11.6-1.7 3.2-3.9 8.6-4.7 11.9-0.9 3.3-1.6 9.4-1.6 13.5 0 4.1 0.7 10.2 1.6 13.5 0.8 3.3 3 8.6 4.7 11.9 1.8 3.2 5.7 8.4 8.8 11.5 3.1 3.1 8.3 7 11.5 8.8 3.3 1.7 8.6 3.9 11.9 4.9 3.6 1 9.2 1.7 14 1.7 4.6 0 10.6-0.8 14-1.8 3.3-0.9 8.1-2.8 10.7-4.1 2.7-1.3 7.6-5 11-8.2 4-3.7 7.7-8.4 10-12.8 2-3.8 4.4-10.1 5.3-13.9 1.2-4.9 1.6-9.4 1.2-15-0.3-4.5-1.5-10.6-2.8-14-1.2-3.3-3.6-8.3-5.4-11-1.8-2.8-5.6-7.3-8.6-10.1-3-2.8-7.4-6.1-9.9-7.4-2.5-1.3-7-3.1-10-4.1-3-1.1-8.7-2.1-12.5-2.3-3.9-0.3-9.5-0.1-12.5 0.5-3 0.5-9.3 2.8-14 5.1z" class="s0" fill-rule="evenodd" id="icon"></path>
	<path d="m3109.2 313.1c-16.5 1.4-38.7 6.4-49.3 11.1-10.6 4.7-24.7 14.1-31.3 21-6.6 6.8-15.5 20.1-19.9 29.5-4.4 9.4-10.1 28.7-12.9 42.8-3.2 17.1-4.5 71.9-3.6 162.8l1.3 137h94.3c4-270.9 5.1-288.6 11.8-298.9 4.2-6.6 14.4-13.7 23.5-16.4 8.9-2.7 24.3-3.6 34.3-2.2 10.1 1.5 22.1 4.7 26.8 7 4.7 2.4 12 10.6 16.1 18.2 6.6 12.2 7.8 31.4 9.7 153.1l2.1 139.2h94.3c4.1-270.9 5.2-288.6 11.8-298.9 4.3-6.6 14.4-13.7 23.6-16.4 8.8-2.7 24.3-3.6 34.3-2.2 10 1.5 22.1 4.7 26.8 7 4.7 2.4 11.9 9.5 16.1 15.9 6.6 10.2 7.7 27.9 9.6 153.1l2.1 141.5h94.4c2.1-224.1 0.8-278.5-2.4-295.5-2.7-14.1-9.3-34.4-14.6-45-5.3-10.6-18.2-26.4-28.5-35.2-11.3-9.7-28.2-18.6-42.4-22.6-13.9-3.8-41.3-6.6-66.5-6.6-26.5-0.1-51 2.4-64.3 6.5-12 3.7-27.5 12.7-35.3 20.5l-13.9 13.9c-18.4-17.5-30.4-26-38.7-30.1-8.2-4.1-29.4-8.7-47.1-10.1-17.7-1.5-45.7-1.5-62.2 0zm-1723.5 9.9c-14.1 3.1-30.5 8-36.4 11.1-5.9 3-17.1 10.5-25 16.6-7.9 6.2-19 20.8-24.8 32.6-7.8 16-10.5 28.9-10.8 51.4-0.2 16.5 2.2 38.4 5.4 48.8 3.3 10.3 12.7 26.5 20.9 35.9 8.3 9.4 21.8 20.5 30 24.6 8.3 4.2 22.7 9.5 32.2 11.9 9.4 2.4 44.1 5.5 77.1 6.9 48.8 2.1 62.1 4.1 70.8 10.5 5.9 4.3 11.3 12.5 12.1 18.1 0.8 5.7 0.3 14.6-1.1 19.9-1.4 5.7-8.6 12.3-17.4 16.1-12.1 5.1-36.5 6.4-122.2 6.4-91.5 0-107.5 1-109.4 6.4-1.1 3.6-2.1 20-2.1 36.4 0 16.5 1 32.9 2.1 36.5 1.9 5.5 19.4 6.4 123.3 6.3 93.7 0 126.5-1.5 144.7-6.4 13-3.5 30.8-11.2 39.7-17.1 8.8-5.9 20.6-16.9 26.2-24.6 5.5-7.7 12.3-20.7 15-28.9 2.8-8.3 4.9-28.5 4.7-45-0.1-16.5-2.6-36.8-5.4-45.1-2.9-8.3-10.5-22.3-17-31-6.5-8.8-20-20.1-30-25.2-10-5-24-11-31.1-13.3-7-2.2-43.4-5.3-80.7-6.8-65.8-2.7-68.2-3.1-76.3-13.5-4.6-5.9-8.4-16.5-8.3-23.6 0-7.5 3.8-16.3 9.2-21.4 8.5-7.9 16.7-8.7 119.1-10.7l109.9-2.1v-85.7c-185.1-1.3-226.5 0.2-244.4 4zm454.5 0.1c-14.2 3-35.4 10.4-47.2 16.3-11.8 5.9-28.6 18.6-37.5 28.3-8.8 9.8-19.7 24.9-24.2 33.8-4.5 8.8-11.6 27.6-15.9 41.7-5.7 18.7-7.8 39.8-7.9 77.1 0 41 1.8 57.5 9.3 81.4 5.1 16.5 15.7 39.5 23.5 51.1 7.8 11.7 22.8 27.5 33.4 35.1 10.7 7.7 29.9 17.4 42.9 21.7 20.3 6.6 39 7.7 132.9 7.7h109.3v-81.3c-187.3-4.2-195.3-5-206.5-13.3-6.7-4.9-16.5-15.5-21.9-23.5-5.4-8.1-11.7-21.4-13.9-29.6-2.3-8.3-4.2-32.4-4.2-53.6-0.1-24.2 2.3-45.6 6.6-57.8 3.7-10.6 11-23.8 16.1-29.3 5.2-5.5 13.3-12.2 18.1-15 5.4-3.1 44-5.7 107.1-7.1l98.6-2.1v-85.7c-162.3-1.3-201 0.3-218.6 4.1zm302.1-0.5c-4.6 4.8-5.3 43.3-3.8 200.4l1.8 194.3h94.3l4.3-152.4 152-1.7 2.3 154.1h94.4v-398.3h-94.4l-2.1 156.4h-154.3l-2.2-156.4c-76.1-2.1-88-0.9-92.3 3.6zm430.9-0.4c-1.2 3-1.6 93.1-1 200.3l1.1 194.8 340.8 2.2-2.1-83.5-242.2-2.2v-68.5c34.9-4.1 61.4-4.7 81.4-4 20.1 0.7 60.1 0.9 89 0.5l52.5-0.8-2.1-83.5-220.8-2.1v-68.6l237.9-2.1v-85.7c-296.8-2-332.8-1.1-334.5 3.2zm1157.6 0.9c-14.1 3-33.9 9.6-43.9 14.6-10 5.1-25.5 15.7-34.3 23.6-8.8 8-21.2 23.9-27.5 35.3-6.3 11.5-14.7 33.5-18.7 48.8-4.5 17.2-7.4 44.9-7.5 72.8-0.2 24.7 2.2 55.6 5.3 68.5 3.1 13 10 33.2 15.5 45 5.5 11.8 18.3 29.8 28.4 40 10.1 10.3 26.2 22.6 35.6 27.5 9.4 4.8 26.8 11.3 38.6 14.5 15 4 52.4 5.7 125.4 5.7l103.9 0.1v-85.7c-137.8 0-184.6-1.8-192.9-4-8.2-2.2-21.3-10.8-28.9-19.2-8.4-9.2-16.7-25.2-20.9-40-5-17.7-6.5-35.9-5.1-65.3 1.4-30.8 4.1-45.1 11.2-58.9 5.2-10 15.7-22.5 23.4-27.8 13.2-9.2 18.3-9.7 110.3-10.9 85.3-1 97.1-2 101.9-8.5 3.2-4.3 5.4-19.5 5.4-36.3 0-15.9-2-32.7-4.4-37.5-4.1-8.1-8.4-8.5-99.6-8.2-60.6 0.2-104.8 2.4-121.2 5.9z" class="s0" id="Path 1"></path>
</svg>